<?xml version="1.0" encoding="utf-8" standalone="no"?>
<!DOCTYPE svg PUBLIC "-//W3C//DTD SVG 1.1//EN"
  "http://www.w3.org/Graphics/SVG/1.1/DTD/svg11.dtd">
<svg xmlns:xlink="http://www.w3.org/1999/xlink" width="460.8pt" height="345.6pt" viewBox="0 0 460.8 345.6" xmlns="http://www.w3.org/2000/svg" version="1.1">
 <metadata>
  <rdf:RDF xmlns:dc="http://purl.org/dc/elements/1.1/" xmlns:cc="http://creativecommons.org/ns#" xmlns:rdf="http://www.w3.org/1999/02/22-rdf-syntax-ns#">
   <cc:Work>
    <dc:type rdf:resource="http://purl.org/dc/dcmitype/StillImage"/>
    <dc:date>2022-12-15T03:49:35.387472</dc:date>
    <dc:format>image/svg+xml</dc:format>
    <dc:creator>
     <cc:Agent>
      <dc:title>Matplotlib v3.6.2, https://matplotlib.org/</dc:title>
     </cc:Agent>
    </dc:creator>
   </cc:Work>
  </rdf:RDF>
 </metadata>
 <defs>
  <style type="text/css">*{stroke-linejoin: round; stroke-linecap: butt}</style>
 </defs>
 <g id="figure_1">
  <g id="patch_1">
   <path d="M 0 345.6 
L 460.8 345.6 
L 460.8 0 
L 0 0 
z
" style="fill: #ffffff"/>
  </g>
  <g id="axes_1">
   <g id="patch_2">
    <path d="M 57.6 307.584 
L 414.72 307.584 
L 414.72 41.472 
L 57.6 41.472 
z
" style="fill: #ffffff"/>
   </g>
   <g id="matplotlib.axis_1">
    <g id="xtick_1">
     <g id="line2d_1">
      <defs>
       <path id="mb3e95573b9" d="M 0 0 
L 0 3.5 
" style="stroke: #000000; stroke-width: 0.8"/>
      </defs>
      <g>
       <use xlink:href="#mb3e95573b9" x="57.6" y="307.584" style="stroke: #000000; stroke-width: 0.8"/>
      </g>
     </g>
     <g id="text_1">
      <!-- 0 -->
      <g transform="translate(54.41875 322.182437) scale(0.1 -0.1)">
       <defs>
        <path id="DejaVuSans-30" d="M 2034 4250 
Q 1547 4250 1301 3770 
Q 1056 3291 1056 2328 
Q 1056 1369 1301 889 
Q 1547 409 2034 409 
Q 2525 409 2770 889 
Q 3016 1369 3016 2328 
Q 3016 3291 2770 3770 
Q 2525 4250 2034 4250 
z
M 2034 4750 
Q 2819 4750 3233 4129 
Q 3647 3509 3647 2328 
Q 3647 1150 3233 529 
Q 2819 -91 2034 -91 
Q 1250 -91 836 529 
Q 422 1150 422 2328 
Q 422 3509 836 4129 
Q 1250 4750 2034 4750 
z
" transform="scale(0.015625)"/>
       </defs>
       <use xlink:href="#DejaVuSans-30"/>
      </g>
     </g>
    </g>
    <g id="xtick_2">
     <g id="line2d_2">
      <g>
       <use xlink:href="#mb3e95573b9" x="97.28" y="307.584" style="stroke: #000000; stroke-width: 0.8"/>
      </g>
     </g>
     <g id="text_2">
      <!-- 500 -->
      <g transform="translate(87.73625 322.182437) scale(0.1 -0.1)">
       <defs>
        <path id="DejaVuSans-35" d="M 691 4666 
L 3169 4666 
L 3169 4134 
L 1269 4134 
L 1269 2991 
Q 1406 3038 1543 3061 
Q 1681 3084 1819 3084 
Q 2600 3084 3056 2656 
Q 3513 2228 3513 1497 
Q 3513 744 3044 326 
Q 2575 -91 1722 -91 
Q 1428 -91 1123 -41 
Q 819 9 494 109 
L 494 744 
Q 775 591 1075 516 
Q 1375 441 1709 441 
Q 2250 441 2565 725 
Q 2881 1009 2881 1497 
Q 2881 1984 2565 2268 
Q 2250 2553 1709 2553 
Q 1456 2553 1204 2497 
Q 953 2441 691 2322 
L 691 4666 
z
" transform="scale(0.015625)"/>
       </defs>
       <use xlink:href="#DejaVuSans-35"/>
       <use xlink:href="#DejaVuSans-30" x="63.623047"/>
       <use xlink:href="#DejaVuSans-30" x="127.246094"/>
      </g>
     </g>
    </g>
    <g id="xtick_3">
     <g id="line2d_3">
      <g>
       <use xlink:href="#mb3e95573b9" x="136.96" y="307.584" style="stroke: #000000; stroke-width: 0.8"/>
      </g>
     </g>
     <g id="text_3">
      <!-- 1000 -->
      <g transform="translate(124.235 322.182437) scale(0.1 -0.1)">
       <defs>
        <path id="DejaVuSans-31" d="M 794 531 
L 1825 531 
L 1825 4091 
L 703 3866 
L 703 4441 
L 1819 4666 
L 2450 4666 
L 2450 531 
L 3481 531 
L 3481 0 
L 794 0 
L 794 531 
z
" transform="scale(0.015625)"/>
       </defs>
       <use xlink:href="#DejaVuSans-31"/>
       <use xlink:href="#DejaVuSans-30" x="63.623047"/>
       <use xlink:href="#DejaVuSans-30" x="127.246094"/>
       <use xlink:href="#DejaVuSans-30" x="190.869141"/>
      </g>
     </g>
    </g>
    <g id="xtick_4">
     <g id="line2d_4">
      <g>
       <use xlink:href="#mb3e95573b9" x="176.64" y="307.584" style="stroke: #000000; stroke-width: 0.8"/>
      </g>
     </g>
     <g id="text_4">
      <!-- 1500 -->
      <g transform="translate(163.915 322.182437) scale(0.1 -0.1)">
       <use xlink:href="#DejaVuSans-31"/>
       <use xlink:href="#DejaVuSans-35" x="63.623047"/>
       <use xlink:href="#DejaVuSans-30" x="127.246094"/>
       <use xlink:href="#DejaVuSans-30" x="190.869141"/>
      </g>
     </g>
    </g>
    <g id="xtick_5">
     <g id="line2d_5">
      <g>
       <use xlink:href="#mb3e95573b9" x="216.32" y="307.584" style="stroke: #000000; stroke-width: 0.8"/>
      </g>
     </g>
     <g id="text_5">
      <!-- 2000 -->
      <g transform="translate(203.595 322.182437) scale(0.1 -0.1)">
       <defs>
        <path id="DejaVuSans-32" d="M 1228 531 
L 3431 531 
L 3431 0 
L 469 0 
L 469 531 
Q 828 903 1448 1529 
Q 2069 2156 2228 2338 
Q 2531 2678 2651 2914 
Q 2772 3150 2772 3378 
Q 2772 3750 2511 3984 
Q 2250 4219 1831 4219 
Q 1534 4219 1204 4116 
Q 875 4013 500 3803 
L 500 4441 
Q 881 4594 1212 4672 
Q 1544 4750 1819 4750 
Q 2544 4750 2975 4387 
Q 3406 4025 3406 3419 
Q 3406 3131 3298 2873 
Q 3191 2616 2906 2266 
Q 2828 2175 2409 1742 
Q 1991 1309 1228 531 
z
" transform="scale(0.015625)"/>
       </defs>
       <use xlink:href="#DejaVuSans-32"/>
       <use xlink:href="#DejaVuSans-30" x="63.623047"/>
       <use xlink:href="#DejaVuSans-30" x="127.246094"/>
       <use xlink:href="#DejaVuSans-30" x="190.869141"/>
      </g>
     </g>
    </g>
    <g id="xtick_6">
     <g id="line2d_6">
      <g>
       <use xlink:href="#mb3e95573b9" x="256" y="307.584" style="stroke: #000000; stroke-width: 0.8"/>
      </g>
     </g>
     <g id="text_6">
      <!-- 2500 -->
      <g transform="translate(243.275 322.182437) scale(0.1 -0.1)">
       <use xlink:href="#DejaVuSans-32"/>
       <use xlink:href="#DejaVuSans-35" x="63.623047"/>
       <use xlink:href="#DejaVuSans-30" x="127.246094"/>
       <use xlink:href="#DejaVuSans-30" x="190.869141"/>
      </g>
     </g>
    </g>
    <g id="xtick_7">
     <g id="line2d_7">
      <g>
       <use xlink:href="#mb3e95573b9" x="295.68" y="307.584" style="stroke: #000000; stroke-width: 0.8"/>
      </g>
     </g>
     <g id="text_7">
      <!-- 3000 -->
      <g transform="translate(282.955 322.182437) scale(0.1 -0.1)">
       <defs>
        <path id="DejaVuSans-33" d="M 2597 2516 
Q 3050 2419 3304 2112 
Q 3559 1806 3559 1356 
Q 3559 666 3084 287 
Q 2609 -91 1734 -91 
Q 1441 -91 1130 -33 
Q 819 25 488 141 
L 488 750 
Q 750 597 1062 519 
Q 1375 441 1716 441 
Q 2309 441 2620 675 
Q 2931 909 2931 1356 
Q 2931 1769 2642 2001 
Q 2353 2234 1838 2234 
L 1294 2234 
L 1294 2753 
L 1863 2753 
Q 2328 2753 2575 2939 
Q 2822 3125 2822 3475 
Q 2822 3834 2567 4026 
Q 2313 4219 1838 4219 
Q 1578 4219 1281 4162 
Q 984 4106 628 3988 
L 628 4550 
Q 988 4650 1302 4700 
Q 1616 4750 1894 4750 
Q 2613 4750 3031 4423 
Q 3450 4097 3450 3541 
Q 3450 3153 3228 2886 
Q 3006 2619 2597 2516 
z
" transform="scale(0.015625)"/>
       </defs>
       <use xlink:href="#DejaVuSans-33"/>
       <use xlink:href="#DejaVuSans-30" x="63.623047"/>
       <use xlink:href="#DejaVuSans-30" x="127.246094"/>
       <use xlink:href="#DejaVuSans-30" x="190.869141"/>
      </g>
     </g>
    </g>
    <g id="xtick_8">
     <g id="line2d_8">
      <g>
       <use xlink:href="#mb3e95573b9" x="335.36" y="307.584" style="stroke: #000000; stroke-width: 0.8"/>
      </g>
     </g>
     <g id="text_8">
      <!-- 3500 -->
      <g transform="translate(322.635 322.182437) scale(0.1 -0.1)">
       <use xlink:href="#DejaVuSans-33"/>
       <use xlink:href="#DejaVuSans-35" x="63.623047"/>
       <use xlink:href="#DejaVuSans-30" x="127.246094"/>
       <use xlink:href="#DejaVuSans-30" x="190.869141"/>
      </g>
     </g>
    </g>
    <g id="xtick_9">
     <g id="line2d_9">
      <g>
       <use xlink:href="#mb3e95573b9" x="375.04" y="307.584" style="stroke: #000000; stroke-width: 0.8"/>
      </g>
     </g>
     <g id="text_9">
      <!-- 4000 -->
      <g transform="translate(362.315 322.182437) scale(0.1 -0.1)">
       <defs>
        <path id="DejaVuSans-34" d="M 2419 4116 
L 825 1625 
L 2419 1625 
L 2419 4116 
z
M 2253 4666 
L 3047 4666 
L 3047 1625 
L 3713 1625 
L 3713 1100 
L 3047 1100 
L 3047 0 
L 2419 0 
L 2419 1100 
L 313 1100 
L 313 1709 
L 2253 4666 
z
" transform="scale(0.015625)"/>
       </defs>
       <use xlink:href="#DejaVuSans-34"/>
       <use xlink:href="#DejaVuSans-30" x="63.623047"/>
       <use xlink:href="#DejaVuSans-30" x="127.246094"/>
       <use xlink:href="#DejaVuSans-30" x="190.869141"/>
      </g>
     </g>
    </g>
    <g id="xtick_10">
     <g id="line2d_10">
      <g>
       <use xlink:href="#mb3e95573b9" x="414.72" y="307.584" style="stroke: #000000; stroke-width: 0.8"/>
      </g>
     </g>
     <g id="text_10">
      <!-- 4500 -->
      <g transform="translate(401.995 322.182437) scale(0.1 -0.1)">
       <use xlink:href="#DejaVuSans-34"/>
       <use xlink:href="#DejaVuSans-35" x="63.623047"/>
       <use xlink:href="#DejaVuSans-30" x="127.246094"/>
       <use xlink:href="#DejaVuSans-30" x="190.869141"/>
      </g>
     </g>
    </g>
    <g id="text_11">
     <!-- engine rpms compared to driveshaft speed -->
     <g transform="translate(128.094375 335.860562) scale(0.1 -0.1)">
      <defs>
       <path id="DejaVuSans-65" d="M 3597 1894 
L 3597 1613 
L 953 1613 
Q 991 1019 1311 708 
Q 1631 397 2203 397 
Q 2534 397 2845 478 
Q 3156 559 3463 722 
L 3463 178 
Q 3153 47 2828 -22 
Q 2503 -91 2169 -91 
Q 1331 -91 842 396 
Q 353 884 353 1716 
Q 353 2575 817 3079 
Q 1281 3584 2069 3584 
Q 2775 3584 3186 3129 
Q 3597 2675 3597 1894 
z
M 3022 2063 
Q 3016 2534 2758 2815 
Q 2500 3097 2075 3097 
Q 1594 3097 1305 2825 
Q 1016 2553 972 2059 
L 3022 2063 
z
" transform="scale(0.015625)"/>
       <path id="DejaVuSans-6e" d="M 3513 2113 
L 3513 0 
L 2938 0 
L 2938 2094 
Q 2938 2591 2744 2837 
Q 2550 3084 2163 3084 
Q 1697 3084 1428 2787 
Q 1159 2491 1159 1978 
L 1159 0 
L 581 0 
L 581 3500 
L 1159 3500 
L 1159 2956 
Q 1366 3272 1645 3428 
Q 1925 3584 2291 3584 
Q 2894 3584 3203 3211 
Q 3513 2838 3513 2113 
z
" transform="scale(0.015625)"/>
       <path id="DejaVuSans-67" d="M 2906 1791 
Q 2906 2416 2648 2759 
Q 2391 3103 1925 3103 
Q 1463 3103 1205 2759 
Q 947 2416 947 1791 
Q 947 1169 1205 825 
Q 1463 481 1925 481 
Q 2391 481 2648 825 
Q 2906 1169 2906 1791 
z
M 3481 434 
Q 3481 -459 3084 -895 
Q 2688 -1331 1869 -1331 
Q 1566 -1331 1297 -1286 
Q 1028 -1241 775 -1147 
L 775 -588 
Q 1028 -725 1275 -790 
Q 1522 -856 1778 -856 
Q 2344 -856 2625 -561 
Q 2906 -266 2906 331 
L 2906 616 
Q 2728 306 2450 153 
Q 2172 0 1784 0 
Q 1141 0 747 490 
Q 353 981 353 1791 
Q 353 2603 747 3093 
Q 1141 3584 1784 3584 
Q 2172 3584 2450 3431 
Q 2728 3278 2906 2969 
L 2906 3500 
L 3481 3500 
L 3481 434 
z
" transform="scale(0.015625)"/>
       <path id="DejaVuSans-69" d="M 603 3500 
L 1178 3500 
L 1178 0 
L 603 0 
L 603 3500 
z
M 603 4863 
L 1178 4863 
L 1178 4134 
L 603 4134 
L 603 4863 
z
" transform="scale(0.015625)"/>
       <path id="DejaVuSans-20" transform="scale(0.015625)"/>
       <path id="DejaVuSans-72" d="M 2631 2963 
Q 2534 3019 2420 3045 
Q 2306 3072 2169 3072 
Q 1681 3072 1420 2755 
Q 1159 2438 1159 1844 
L 1159 0 
L 581 0 
L 581 3500 
L 1159 3500 
L 1159 2956 
Q 1341 3275 1631 3429 
Q 1922 3584 2338 3584 
Q 2397 3584 2469 3576 
Q 2541 3569 2628 3553 
L 2631 2963 
z
" transform="scale(0.015625)"/>
       <path id="DejaVuSans-70" d="M 1159 525 
L 1159 -1331 
L 581 -1331 
L 581 3500 
L 1159 3500 
L 1159 2969 
Q 1341 3281 1617 3432 
Q 1894 3584 2278 3584 
Q 2916 3584 3314 3078 
Q 3713 2572 3713 1747 
Q 3713 922 3314 415 
Q 2916 -91 2278 -91 
Q 1894 -91 1617 61 
Q 1341 213 1159 525 
z
M 3116 1747 
Q 3116 2381 2855 2742 
Q 2594 3103 2138 3103 
Q 1681 3103 1420 2742 
Q 1159 2381 1159 1747 
Q 1159 1113 1420 752 
Q 1681 391 2138 391 
Q 2594 391 2855 752 
Q 3116 1113 3116 1747 
z
" transform="scale(0.015625)"/>
       <path id="DejaVuSans-6d" d="M 3328 2828 
Q 3544 3216 3844 3400 
Q 4144 3584 4550 3584 
Q 5097 3584 5394 3201 
Q 5691 2819 5691 2113 
L 5691 0 
L 5113 0 
L 5113 2094 
Q 5113 2597 4934 2840 
Q 4756 3084 4391 3084 
Q 3944 3084 3684 2787 
Q 3425 2491 3425 1978 
L 3425 0 
L 2847 0 
L 2847 2094 
Q 2847 2600 2669 2842 
Q 2491 3084 2119 3084 
Q 1678 3084 1418 2786 
Q 1159 2488 1159 1978 
L 1159 0 
L 581 0 
L 581 3500 
L 1159 3500 
L 1159 2956 
Q 1356 3278 1631 3431 
Q 1906 3584 2284 3584 
Q 2666 3584 2933 3390 
Q 3200 3197 3328 2828 
z
" transform="scale(0.015625)"/>
       <path id="DejaVuSans-73" d="M 2834 3397 
L 2834 2853 
Q 2591 2978 2328 3040 
Q 2066 3103 1784 3103 
Q 1356 3103 1142 2972 
Q 928 2841 928 2578 
Q 928 2378 1081 2264 
Q 1234 2150 1697 2047 
L 1894 2003 
Q 2506 1872 2764 1633 
Q 3022 1394 3022 966 
Q 3022 478 2636 193 
Q 2250 -91 1575 -91 
Q 1294 -91 989 -36 
Q 684 19 347 128 
L 347 722 
Q 666 556 975 473 
Q 1284 391 1588 391 
Q 1994 391 2212 530 
Q 2431 669 2431 922 
Q 2431 1156 2273 1281 
Q 2116 1406 1581 1522 
L 1381 1569 
Q 847 1681 609 1914 
Q 372 2147 372 2553 
Q 372 3047 722 3315 
Q 1072 3584 1716 3584 
Q 2034 3584 2315 3537 
Q 2597 3491 2834 3397 
z
" transform="scale(0.015625)"/>
       <path id="DejaVuSans-63" d="M 3122 3366 
L 3122 2828 
Q 2878 2963 2633 3030 
Q 2388 3097 2138 3097 
Q 1578 3097 1268 2742 
Q 959 2388 959 1747 
Q 959 1106 1268 751 
Q 1578 397 2138 397 
Q 2388 397 2633 464 
Q 2878 531 3122 666 
L 3122 134 
Q 2881 22 2623 -34 
Q 2366 -91 2075 -91 
Q 1284 -91 818 406 
Q 353 903 353 1747 
Q 353 2603 823 3093 
Q 1294 3584 2113 3584 
Q 2378 3584 2631 3529 
Q 2884 3475 3122 3366 
z
" transform="scale(0.015625)"/>
       <path id="DejaVuSans-6f" d="M 1959 3097 
Q 1497 3097 1228 2736 
Q 959 2375 959 1747 
Q 959 1119 1226 758 
Q 1494 397 1959 397 
Q 2419 397 2687 759 
Q 2956 1122 2956 1747 
Q 2956 2369 2687 2733 
Q 2419 3097 1959 3097 
z
M 1959 3584 
Q 2709 3584 3137 3096 
Q 3566 2609 3566 1747 
Q 3566 888 3137 398 
Q 2709 -91 1959 -91 
Q 1206 -91 779 398 
Q 353 888 353 1747 
Q 353 2609 779 3096 
Q 1206 3584 1959 3584 
z
" transform="scale(0.015625)"/>
       <path id="DejaVuSans-61" d="M 2194 1759 
Q 1497 1759 1228 1600 
Q 959 1441 959 1056 
Q 959 750 1161 570 
Q 1363 391 1709 391 
Q 2188 391 2477 730 
Q 2766 1069 2766 1631 
L 2766 1759 
L 2194 1759 
z
M 3341 1997 
L 3341 0 
L 2766 0 
L 2766 531 
Q 2569 213 2275 61 
Q 1981 -91 1556 -91 
Q 1019 -91 701 211 
Q 384 513 384 1019 
Q 384 1609 779 1909 
Q 1175 2209 1959 2209 
L 2766 2209 
L 2766 2266 
Q 2766 2663 2505 2880 
Q 2244 3097 1772 3097 
Q 1472 3097 1187 3025 
Q 903 2953 641 2809 
L 641 3341 
Q 956 3463 1253 3523 
Q 1550 3584 1831 3584 
Q 2591 3584 2966 3190 
Q 3341 2797 3341 1997 
z
" transform="scale(0.015625)"/>
       <path id="DejaVuSans-64" d="M 2906 2969 
L 2906 4863 
L 3481 4863 
L 3481 0 
L 2906 0 
L 2906 525 
Q 2725 213 2448 61 
Q 2172 -91 1784 -91 
Q 1150 -91 751 415 
Q 353 922 353 1747 
Q 353 2572 751 3078 
Q 1150 3584 1784 3584 
Q 2172 3584 2448 3432 
Q 2725 3281 2906 2969 
z
M 947 1747 
Q 947 1113 1208 752 
Q 1469 391 1925 391 
Q 2381 391 2643 752 
Q 2906 1113 2906 1747 
Q 2906 2381 2643 2742 
Q 2381 3103 1925 3103 
Q 1469 3103 1208 2742 
Q 947 2381 947 1747 
z
" transform="scale(0.015625)"/>
       <path id="DejaVuSans-74" d="M 1172 4494 
L 1172 3500 
L 2356 3500 
L 2356 3053 
L 1172 3053 
L 1172 1153 
Q 1172 725 1289 603 
Q 1406 481 1766 481 
L 2356 481 
L 2356 0 
L 1766 0 
Q 1100 0 847 248 
Q 594 497 594 1153 
L 594 3053 
L 172 3053 
L 172 3500 
L 594 3500 
L 594 4494 
L 1172 4494 
z
" transform="scale(0.015625)"/>
       <path id="DejaVuSans-76" d="M 191 3500 
L 800 3500 
L 1894 563 
L 2988 3500 
L 3597 3500 
L 2284 0 
L 1503 0 
L 191 3500 
z
" transform="scale(0.015625)"/>
       <path id="DejaVuSans-68" d="M 3513 2113 
L 3513 0 
L 2938 0 
L 2938 2094 
Q 2938 2591 2744 2837 
Q 2550 3084 2163 3084 
Q 1697 3084 1428 2787 
Q 1159 2491 1159 1978 
L 1159 0 
L 581 0 
L 581 4863 
L 1159 4863 
L 1159 2956 
Q 1366 3272 1645 3428 
Q 1925 3584 2291 3584 
Q 2894 3584 3203 3211 
Q 3513 2838 3513 2113 
z
" transform="scale(0.015625)"/>
       <path id="DejaVuSans-66" d="M 2375 4863 
L 2375 4384 
L 1825 4384 
Q 1516 4384 1395 4259 
Q 1275 4134 1275 3809 
L 1275 3500 
L 2222 3500 
L 2222 3053 
L 1275 3053 
L 1275 0 
L 697 0 
L 697 3053 
L 147 3053 
L 147 3500 
L 697 3500 
L 697 3744 
Q 697 4328 969 4595 
Q 1241 4863 1831 4863 
L 2375 4863 
z
" transform="scale(0.015625)"/>
      </defs>
      <use xlink:href="#DejaVuSans-65"/>
      <use xlink:href="#DejaVuSans-6e" x="61.523438"/>
      <use xlink:href="#DejaVuSans-67" x="124.902344"/>
      <use xlink:href="#DejaVuSans-69" x="188.378906"/>
      <use xlink:href="#DejaVuSans-6e" x="216.162109"/>
      <use xlink:href="#DejaVuSans-65" x="279.541016"/>
      <use xlink:href="#DejaVuSans-20" x="341.064453"/>
      <use xlink:href="#DejaVuSans-72" x="372.851562"/>
      <use xlink:href="#DejaVuSans-70" x="413.964844"/>
      <use xlink:href="#DejaVuSans-6d" x="477.441406"/>
      <use xlink:href="#DejaVuSans-73" x="574.853516"/>
      <use xlink:href="#DejaVuSans-20" x="626.953125"/>
      <use xlink:href="#DejaVuSans-63" x="658.740234"/>
      <use xlink:href="#DejaVuSans-6f" x="713.720703"/>
      <use xlink:href="#DejaVuSans-6d" x="774.902344"/>
      <use xlink:href="#DejaVuSans-70" x="872.314453"/>
      <use xlink:href="#DejaVuSans-61" x="935.791016"/>
      <use xlink:href="#DejaVuSans-72" x="997.070312"/>
      <use xlink:href="#DejaVuSans-65" x="1035.933594"/>
      <use xlink:href="#DejaVuSans-64" x="1097.457031"/>
      <use xlink:href="#DejaVuSans-20" x="1160.933594"/>
      <use xlink:href="#DejaVuSans-74" x="1192.720703"/>
      <use xlink:href="#DejaVuSans-6f" x="1231.929688"/>
      <use xlink:href="#DejaVuSans-20" x="1293.111328"/>
      <use xlink:href="#DejaVuSans-64" x="1324.898438"/>
      <use xlink:href="#DejaVuSans-72" x="1388.375"/>
      <use xlink:href="#DejaVuSans-69" x="1429.488281"/>
      <use xlink:href="#DejaVuSans-76" x="1457.271484"/>
      <use xlink:href="#DejaVuSans-65" x="1516.451172"/>
      <use xlink:href="#DejaVuSans-73" x="1577.974609"/>
      <use xlink:href="#DejaVuSans-68" x="1630.074219"/>
      <use xlink:href="#DejaVuSans-61" x="1693.453125"/>
      <use xlink:href="#DejaVuSans-66" x="1754.732422"/>
      <use xlink:href="#DejaVuSans-74" x="1788.1875"/>
      <use xlink:href="#DejaVuSans-20" x="1827.396484"/>
      <use xlink:href="#DejaVuSans-73" x="1859.183594"/>
      <use xlink:href="#DejaVuSans-70" x="1911.283203"/>
      <use xlink:href="#DejaVuSans-65" x="1974.759766"/>
      <use xlink:href="#DejaVuSans-65" x="2036.283203"/>
      <use xlink:href="#DejaVuSans-64" x="2097.806641"/>
     </g>
    </g>
   </g>
   <g id="matplotlib.axis_2">
    <g id="ytick_1">
     <g id="line2d_11">
      <defs>
       <path id="m0c6cd92b56" d="M 0 0 
L -3.5 0 
" style="stroke: #000000; stroke-width: 0.8"/>
      </defs>
      <g>
       <use xlink:href="#m0c6cd92b56" x="57.6" y="296.13192" style="stroke: #000000; stroke-width: 0.8"/>
      </g>
     </g>
     <g id="text_12">
      <!-- 0.000 -->
      <g transform="translate(21.971875 299.931138) scale(0.1 -0.1)">
       <defs>
        <path id="DejaVuSans-2e" d="M 684 794 
L 1344 794 
L 1344 0 
L 684 0 
L 684 794 
z
" transform="scale(0.015625)"/>
       </defs>
       <use xlink:href="#DejaVuSans-30"/>
       <use xlink:href="#DejaVuSans-2e" x="63.623047"/>
       <use xlink:href="#DejaVuSans-30" x="95.410156"/>
       <use xlink:href="#DejaVuSans-30" x="159.033203"/>
       <use xlink:href="#DejaVuSans-30" x="222.65625"/>
      </g>
     </g>
    </g>
    <g id="ytick_2">
     <g id="line2d_12">
      <g>
       <use xlink:href="#m0c6cd92b56" x="57.6" y="258.660462" style="stroke: #000000; stroke-width: 0.8"/>
      </g>
     </g>
     <g id="text_13">
      <!-- 0.005 -->
      <g transform="translate(21.971875 262.459681) scale(0.1 -0.1)">
       <use xlink:href="#DejaVuSans-30"/>
       <use xlink:href="#DejaVuSans-2e" x="63.623047"/>
       <use xlink:href="#DejaVuSans-30" x="95.410156"/>
       <use xlink:href="#DejaVuSans-30" x="159.033203"/>
       <use xlink:href="#DejaVuSans-35" x="222.65625"/>
      </g>
     </g>
    </g>
    <g id="ytick_3">
     <g id="line2d_13">
      <g>
       <use xlink:href="#m0c6cd92b56" x="57.6" y="221.189004" style="stroke: #000000; stroke-width: 0.8"/>
      </g>
     </g>
     <g id="text_14">
      <!-- 0.010 -->
      <g transform="translate(21.971875 224.988223) scale(0.1 -0.1)">
       <use xlink:href="#DejaVuSans-30"/>
       <use xlink:href="#DejaVuSans-2e" x="63.623047"/>
       <use xlink:href="#DejaVuSans-30" x="95.410156"/>
       <use xlink:href="#DejaVuSans-31" x="159.033203"/>
       <use xlink:href="#DejaVuSans-30" x="222.65625"/>
      </g>
     </g>
    </g>
    <g id="ytick_4">
     <g id="line2d_14">
      <g>
       <use xlink:href="#m0c6cd92b56" x="57.6" y="183.717546" style="stroke: #000000; stroke-width: 0.8"/>
      </g>
     </g>
     <g id="text_15">
      <!-- 0.015 -->
      <g transform="translate(21.971875 187.516765) scale(0.1 -0.1)">
       <use xlink:href="#DejaVuSans-30"/>
       <use xlink:href="#DejaVuSans-2e" x="63.623047"/>
       <use xlink:href="#DejaVuSans-30" x="95.410156"/>
       <use xlink:href="#DejaVuSans-31" x="159.033203"/>
       <use xlink:href="#DejaVuSans-35" x="222.65625"/>
      </g>
     </g>
    </g>
    <g id="ytick_5">
     <g id="line2d_15">
      <g>
       <use xlink:href="#m0c6cd92b56" x="57.6" y="146.246088" style="stroke: #000000; stroke-width: 0.8"/>
      </g>
     </g>
     <g id="text_16">
      <!-- 0.020 -->
      <g transform="translate(21.971875 150.045307) scale(0.1 -0.1)">
       <use xlink:href="#DejaVuSans-30"/>
       <use xlink:href="#DejaVuSans-2e" x="63.623047"/>
       <use xlink:href="#DejaVuSans-30" x="95.410156"/>
       <use xlink:href="#DejaVuSans-32" x="159.033203"/>
       <use xlink:href="#DejaVuSans-30" x="222.65625"/>
      </g>
     </g>
    </g>
    <g id="ytick_6">
     <g id="line2d_16">
      <g>
       <use xlink:href="#m0c6cd92b56" x="57.6" y="108.77463" style="stroke: #000000; stroke-width: 0.8"/>
      </g>
     </g>
     <g id="text_17">
      <!-- 0.025 -->
      <g transform="translate(21.971875 112.573849) scale(0.1 -0.1)">
       <use xlink:href="#DejaVuSans-30"/>
       <use xlink:href="#DejaVuSans-2e" x="63.623047"/>
       <use xlink:href="#DejaVuSans-30" x="95.410156"/>
       <use xlink:href="#DejaVuSans-32" x="159.033203"/>
       <use xlink:href="#DejaVuSans-35" x="222.65625"/>
      </g>
     </g>
    </g>
    <g id="ytick_7">
     <g id="line2d_17">
      <g>
       <use xlink:href="#m0c6cd92b56" x="57.6" y="71.303172" style="stroke: #000000; stroke-width: 0.8"/>
      </g>
     </g>
     <g id="text_18">
      <!-- 0.030 -->
      <g transform="translate(21.971875 75.102391) scale(0.1 -0.1)">
       <use xlink:href="#DejaVuSans-30"/>
       <use xlink:href="#DejaVuSans-2e" x="63.623047"/>
       <use xlink:href="#DejaVuSans-30" x="95.410156"/>
       <use xlink:href="#DejaVuSans-33" x="159.033203"/>
       <use xlink:href="#DejaVuSans-30" x="222.65625"/>
      </g>
     </g>
    </g>
    <g id="text_19">
     <!-- power spectral density (db/rpm -->
     <g transform="translate(15.892187 253.239719) rotate(-90) scale(0.1 -0.1)">
      <defs>
       <path id="DejaVuSans-77" d="M 269 3500 
L 844 3500 
L 1563 769 
L 2278 3500 
L 2956 3500 
L 3675 769 
L 4391 3500 
L 4966 3500 
L 4050 0 
L 3372 0 
L 2619 2869 
L 1863 0 
L 1184 0 
L 269 3500 
z
" transform="scale(0.015625)"/>
       <path id="DejaVuSans-6c" d="M 603 4863 
L 1178 4863 
L 1178 0 
L 603 0 
L 603 4863 
z
" transform="scale(0.015625)"/>
       <path id="DejaVuSans-79" d="M 2059 -325 
Q 1816 -950 1584 -1140 
Q 1353 -1331 966 -1331 
L 506 -1331 
L 506 -850 
L 844 -850 
Q 1081 -850 1212 -737 
Q 1344 -625 1503 -206 
L 1606 56 
L 191 3500 
L 800 3500 
L 1894 763 
L 2988 3500 
L 3597 3500 
L 2059 -325 
z
" transform="scale(0.015625)"/>
       <path id="DejaVuSans-28" d="M 1984 4856 
Q 1566 4138 1362 3434 
Q 1159 2731 1159 2009 
Q 1159 1288 1364 580 
Q 1569 -128 1984 -844 
L 1484 -844 
Q 1016 -109 783 600 
Q 550 1309 550 2009 
Q 550 2706 781 3412 
Q 1013 4119 1484 4856 
L 1984 4856 
z
" transform="scale(0.015625)"/>
       <path id="DejaVuSans-62" d="M 3116 1747 
Q 3116 2381 2855 2742 
Q 2594 3103 2138 3103 
Q 1681 3103 1420 2742 
Q 1159 2381 1159 1747 
Q 1159 1113 1420 752 
Q 1681 391 2138 391 
Q 2594 391 2855 752 
Q 3116 1113 3116 1747 
z
M 1159 2969 
Q 1341 3281 1617 3432 
Q 1894 3584 2278 3584 
Q 2916 3584 3314 3078 
Q 3713 2572 3713 1747 
Q 3713 922 3314 415 
Q 2916 -91 2278 -91 
Q 1894 -91 1617 61 
Q 1341 213 1159 525 
L 1159 0 
L 581 0 
L 581 4863 
L 1159 4863 
L 1159 2969 
z
" transform="scale(0.015625)"/>
       <path id="DejaVuSans-2f" d="M 1625 4666 
L 2156 4666 
L 531 -594 
L 0 -594 
L 1625 4666 
z
" transform="scale(0.015625)"/>
      </defs>
      <use xlink:href="#DejaVuSans-70"/>
      <use xlink:href="#DejaVuSans-6f" x="63.476562"/>
      <use xlink:href="#DejaVuSans-77" x="124.658203"/>
      <use xlink:href="#DejaVuSans-65" x="206.445312"/>
      <use xlink:href="#DejaVuSans-72" x="267.96875"/>
      <use xlink:href="#DejaVuSans-20" x="309.082031"/>
      <use xlink:href="#DejaVuSans-73" x="340.869141"/>
      <use xlink:href="#DejaVuSans-70" x="392.96875"/>
      <use xlink:href="#DejaVuSans-65" x="456.445312"/>
      <use xlink:href="#DejaVuSans-63" x="517.96875"/>
      <use xlink:href="#DejaVuSans-74" x="572.949219"/>
      <use xlink:href="#DejaVuSans-72" x="612.158203"/>
      <use xlink:href="#DejaVuSans-61" x="653.271484"/>
      <use xlink:href="#DejaVuSans-6c" x="714.550781"/>
      <use xlink:href="#DejaVuSans-20" x="742.333984"/>
      <use xlink:href="#DejaVuSans-64" x="774.121094"/>
      <use xlink:href="#DejaVuSans-65" x="837.597656"/>
      <use xlink:href="#DejaVuSans-6e" x="899.121094"/>
      <use xlink:href="#DejaVuSans-73" x="962.5"/>
      <use xlink:href="#DejaVuSans-69" x="1014.599609"/>
      <use xlink:href="#DejaVuSans-74" x="1042.382812"/>
      <use xlink:href="#DejaVuSans-79" x="1081.591797"/>
      <use xlink:href="#DejaVuSans-20" x="1140.771484"/>
      <use xlink:href="#DejaVuSans-28" x="1172.558594"/>
      <use xlink:href="#DejaVuSans-64" x="1211.572266"/>
      <use xlink:href="#DejaVuSans-62" x="1275.048828"/>
      <use xlink:href="#DejaVuSans-2f" x="1338.525391"/>
      <use xlink:href="#DejaVuSans-72" x="1372.216797"/>
      <use xlink:href="#DejaVuSans-70" x="1413.330078"/>
      <use xlink:href="#DejaVuSans-6d" x="1476.806641"/>
     </g>
    </g>
   </g>
   <g id="line2d_18">
    <path d="M 57.6 53.568 
L 71.594577 61.832728 
L 85.589155 145.411735 
L 99.583732 193.264454 
L 113.578309 215.599993 
L 127.572887 241.41477 
L 141.567464 262.806226 
L 155.562041 275.251502 
L 169.556619 281.57756 
L 183.551196 281.952224 
L 197.545773 281.23828 
L 211.540351 283.253116 
L 225.534928 283.096464 
L 239.529505 282.782349 
L 253.524083 287.06551 
L 267.51866 282.469097 
L 281.513237 274.740643 
L 295.507814 269.522527 
L 309.502392 263.490796 
L 323.496969 244.257123 
L 337.491546 219.998664 
L 351.486124 217.082308 
L 365.480701 202.325496 
L 379.475278 199.512168 
L 393.469856 213.064172 
L 407.464433 234.084149 
L 421.45901 236.78426 
L 435.453588 242.978347 
L 449.448165 253.69882 
L 461.8 250.391353 
L 461.8 250.391353 
" clip-path="url(#p8a9038c4d3)" style="fill: none; stroke: #1f77b4; stroke-width: 1.5; stroke-linecap: square"/>
   </g>
   <g id="line2d_19">
    <path d="M 57.6 53.568 
L 66.593848 61.832728 
L 75.587697 145.411735 
L 84.581545 193.264454 
L 93.575393 215.599993 
L 102.569242 241.41477 
L 111.56309 262.806226 
L 120.556939 275.251502 
L 129.550787 281.57756 
L 138.544635 281.952224 
L 147.538484 281.23828 
L 156.532332 283.253116 
L 165.52618 283.096464 
L 174.520029 282.782349 
L 183.513877 287.06551 
L 192.507725 282.469097 
L 201.501574 274.740643 
L 210.495422 269.522527 
L 219.48927 263.490796 
L 228.483119 244.257123 
L 237.476967 219.998664 
L 246.470816 217.082308 
L 255.464664 202.325496 
L 264.458512 199.512168 
L 273.452361 213.064172 
L 282.446209 234.084149 
L 291.440057 236.78426 
L 300.433906 242.978347 
L 309.427754 253.69882 
L 318.421602 249.951474 
L 327.415451 253.339439 
L 336.409299 262.428186 
L 345.403147 251.800062 
L 354.396996 245.206534 
L 363.390844 245.533872 
L 372.384693 257.701031 
L 381.378541 275.696365 
L 390.372389 278.838794 
L 399.366238 280.537826 
L 408.360086 281.149647 
L 417.353934 281.954328 
L 426.347783 277.85929 
L 435.341631 274.496439 
L 444.335479 274.796396 
L 453.329328 277.495627 
L 461.8 270.726538 
L 461.8 270.726538 
" clip-path="url(#p8a9038c4d3)" style="fill: none; stroke: #ff7f0e; stroke-width: 1.5; stroke-linecap: square"/>
   </g>
   <g id="line2d_20">
    <path d="M 57.6 53.568 
L 62.861961 61.832728 
L 68.123922 145.411735 
L 73.385883 193.264454 
L 78.647844 215.599993 
L 83.909805 241.41477 
L 89.171766 262.806226 
L 94.433728 275.251502 
L 99.695689 281.57756 
L 104.95765 281.952224 
L 110.219611 281.23828 
L 115.481572 283.253116 
L 120.743533 283.096464 
L 126.005494 282.782349 
L 131.267455 287.06551 
L 136.529416 282.469097 
L 141.791377 274.740643 
L 147.053338 269.522527 
L 152.315299 263.490796 
L 157.57726 244.257123 
L 162.839221 219.998664 
L 168.101183 217.082308 
L 173.363144 202.325496 
L 178.625105 199.512168 
L 183.887066 213.064172 
L 189.149027 234.084149 
L 194.410988 236.78426 
L 199.672949 242.978347 
L 204.93491 253.69882 
L 210.196871 249.951474 
L 215.458832 253.339439 
L 220.720793 262.428186 
L 225.982754 251.800062 
L 231.244715 245.206534 
L 236.506676 245.533872 
L 241.768638 257.701031 
L 247.030599 275.696365 
L 252.29256 278.838794 
L 257.554521 280.537826 
L 262.816482 281.149647 
L 268.078443 281.954328 
L 273.340404 277.85929 
L 278.602365 274.496439 
L 283.864326 274.796396 
L 289.126287 277.495627 
L 294.388248 270.308457 
L 299.650209 258.900259 
L 304.91217 256.78077 
L 310.174131 256.660542 
L 315.436093 255.228944 
L 320.698054 257.592221 
L 325.960015 257.020512 
L 331.221976 251.722703 
L 336.483937 252.540097 
L 341.745898 252.660113 
L 347.007859 253.201929 
L 352.26982 257.404606 
L 357.531781 262.671486 
L 362.793742 265.506697 
L 368.055703 262.577225 
L 373.317664 267.639948 
L 378.579625 258.41823 
L 383.841587 249.652503 
L 389.103548 254.656798 
L 394.365509 264.582952 
L 399.62747 263.778422 
L 404.889431 262.001867 
L 410.151392 268.633733 
L 415.413353 268.486042 
L 420.675314 269.818402 
L 425.937275 277.541189 
L 431.199236 282.737651 
L 436.461197 282.981138 
L 441.723158 280.539506 
L 446.985119 281.902231 
L 452.24708 282.850921 
L 457.509042 278.764116 
L 461.8 277.537118 
L 461.8 277.537118 
" clip-path="url(#p8a9038c4d3)" style="fill: none; stroke: #2ca02c; stroke-width: 1.5; stroke-linecap: square"/>
   </g>
   <g id="line2d_21">
    <path d="M 57.6 53.568 
L 61.331887 61.832728 
L 65.063775 145.411735 
L 68.795662 193.264454 
L 72.527549 215.599993 
L 76.259436 241.41477 
L 79.991324 262.806226 
L 83.723211 275.251502 
L 87.455098 281.57756 
L 91.186986 281.952224 
L 94.918873 281.23828 
L 98.65076 283.253116 
L 102.382647 283.096464 
L 106.114535 282.782349 
L 109.846422 287.06551 
L 113.578309 282.469097 
L 117.310197 274.740643 
L 121.042084 269.522527 
L 124.773971 263.490796 
L 128.505858 244.257123 
L 132.237746 219.998664 
L 135.969633 217.082308 
L 139.70152 202.325496 
L 143.433408 199.512168 
L 147.165295 213.064172 
L 150.897182 234.084149 
L 154.629069 236.78426 
L 158.360957 242.978347 
L 162.092844 253.69882 
L 165.824731 249.951474 
L 169.556619 253.339439 
L 173.288506 262.428186 
L 177.020393 251.800062 
L 180.75228 245.206534 
L 184.484168 245.533872 
L 188.216055 257.701031 
L 191.947942 275.696365 
L 195.67983 278.838794 
L 199.411717 280.537826 
L 203.143604 281.149647 
L 206.875491 281.954328 
L 210.607379 277.85929 
L 214.339266 274.496439 
L 218.071153 274.796396 
L 221.803041 277.495627 
L 225.534928 270.308457 
L 229.266815 258.900259 
L 232.998702 256.78077 
L 236.73059 256.660542 
L 240.462477 255.228944 
L 244.194364 257.592221 
L 247.926252 257.020512 
L 251.658139 251.722703 
L 255.390026 252.540097 
L 259.121913 252.660113 
L 262.853801 253.201929 
L 266.585688 257.404606 
L 270.317575 262.671486 
L 274.049463 265.506697 
L 277.78135 262.577225 
L 281.513237 267.639948 
L 285.245124 258.41823 
L 288.977012 249.652503 
L 292.708899 254.656798 
L 296.440786 264.582952 
L 300.172674 263.778422 
L 303.904561 262.001867 
L 307.636448 268.633733 
L 311.368335 268.486042 
L 315.100223 269.818402 
L 318.83211 277.541189 
L 322.563997 282.737651 
L 326.295885 282.981138 
L 330.027772 280.539506 
L 333.759659 281.902231 
L 337.491546 282.850921 
L 341.223434 278.764116 
L 344.955321 277.25946 
L 348.687208 280.41562 
L 352.419096 281.843912 
L 356.150983 281.117022 
L 359.88287 283.920797 
L 363.614757 283.505839 
L 367.346645 283.348112 
L 371.078532 285.116172 
L 374.810419 286.464029 
L 378.542307 287.27668 
L 382.274194 285.58706 
L 386.006081 288.304532 
L 389.737968 288.583488 
L 393.469856 289.033481 
L 397.201743 288.261698 
L 400.93363 284.821908 
L 404.665518 275.851484 
L 408.397405 264.997475 
L 412.129292 267.031356 
L 415.861179 277.574287 
L 419.593067 285.699218 
L 423.324954 286.766983 
L 427.056841 289.282732 
L 430.788729 288.417491 
L 434.520616 287.943669 
L 438.252503 289.193881 
L 441.98439 290.971453 
L 445.716278 291.025965 
L 449.448165 292.728968 
L 453.180052 293.734678 
L 456.91194 294.178615 
L 461.8 294.332423 
L 461.8 294.332423 
" clip-path="url(#p8a9038c4d3)" style="fill: none; stroke: #d62728; stroke-width: 1.5; stroke-linecap: square"/>
   </g>
   <g id="line2d_22">
    <path d="M 57.6 53.568 
L 60.286959 61.832728 
L 62.973918 145.411735 
L 65.660877 193.264454 
L 68.347835 215.599993 
L 71.034794 241.41477 
L 73.721753 262.806226 
L 76.408712 275.251502 
L 79.095671 281.57756 
L 81.78263 281.952224 
L 84.469588 281.23828 
L 87.156547 283.253116 
L 89.843506 283.096464 
L 92.530465 282.782349 
L 95.217424 287.06551 
L 97.904383 282.469097 
L 100.591342 274.740643 
L 103.2783 269.522527 
L 105.965259 263.490796 
L 108.652218 244.257123 
L 111.339177 219.998664 
L 114.026136 217.082308 
L 116.713095 202.325496 
L 119.400053 199.512168 
L 122.087012 213.064172 
L 124.773971 234.084149 
L 127.46093 236.78426 
L 130.147889 242.978347 
L 132.834848 253.69882 
L 135.521807 249.951474 
L 138.208765 253.339439 
L 140.895724 262.428186 
L 143.582683 251.800062 
L 146.269642 245.206534 
L 148.956601 245.533872 
L 151.64356 257.701031 
L 154.330518 275.696365 
L 157.017477 278.838794 
L 159.704436 280.537826 
L 162.391395 281.149647 
L 165.078354 281.954328 
L 167.765313 277.85929 
L 170.452272 274.496439 
L 173.13923 274.796396 
L 175.826189 277.495627 
L 178.513148 270.308457 
L 181.200107 258.900259 
L 183.887066 256.78077 
L 186.574025 256.660542 
L 189.260983 255.228944 
L 191.947942 257.592221 
L 194.634901 257.020512 
L 197.32186 251.722703 
L 200.008819 252.540097 
L 202.695778 252.660113 
L 205.382737 253.201929 
L 208.069695 257.404606 
L 210.756654 262.671486 
L 213.443613 265.506697 
L 216.130572 262.577225 
L 218.817531 267.639948 
L 221.50449 258.41823 
L 224.191448 249.652503 
L 226.878407 254.656798 
L 229.565366 264.582952 
L 232.252325 263.778422 
L 234.939284 262.001867 
L 237.626243 268.633733 
L 240.313202 268.486042 
L 243.00016 269.818402 
L 245.687119 277.541189 
L 248.374078 282.737651 
L 251.061037 282.981138 
L 253.747996 280.539506 
L 256.434955 281.902231 
L 259.121913 282.850921 
L 261.808872 278.764116 
L 264.495831 277.25946 
L 267.18279 280.41562 
L 269.869749 281.843912 
L 272.556708 281.117022 
L 275.243667 283.920797 
L 277.930625 283.505839 
L 280.617584 283.348112 
L 283.304543 285.116172 
L 285.991502 286.464029 
L 288.678461 287.27668 
L 291.36542 285.58706 
L 294.052378 288.304532 
L 296.739337 288.583488 
L 299.426296 289.033481 
L 302.113255 288.261698 
L 304.800214 284.821908 
L 307.487173 275.851484 
L 310.174131 264.997475 
L 312.86109 267.031356 
L 315.548049 277.574287 
L 318.235008 285.699218 
L 320.921967 286.766983 
L 323.608926 289.282732 
L 326.295885 288.417491 
L 328.982843 287.943669 
L 331.669802 289.193881 
L 334.356761 290.971453 
L 337.04372 291.025965 
L 339.730679 292.728968 
L 342.417638 293.734678 
L 345.104596 294.178615 
L 353.165473 294.393184 
L 355.852432 293.968777 
L 358.539391 293.813216 
L 366.600267 294.801742 
L 374.661144 294.955278 
L 377.348103 294.827131 
L 380.035061 294.384375 
L 382.72202 294.568319 
L 385.408979 294.93826 
L 390.782897 294.753293 
L 393.469856 294.998907 
L 396.156815 295.108651 
L 398.843773 295.016777 
L 401.530732 295.488 
L 401.530732 295.488 
" clip-path="url(#p8a9038c4d3)" style="fill: none; stroke: #9467bd; stroke-width: 1.5; stroke-linecap: square"/>
   </g>
   <g id="patch_3">
    <path d="M 57.6 307.584 
L 57.6 41.472 
" style="fill: none; stroke: #000000; stroke-width: 0.8; stroke-linejoin: miter; stroke-linecap: square"/>
   </g>
   <g id="patch_4">
    <path d="M 414.72 307.584 
L 414.72 41.472 
" style="fill: none; stroke: #000000; stroke-width: 0.8; stroke-linejoin: miter; stroke-linecap: square"/>
   </g>
   <g id="patch_5">
    <path d="M 57.6 307.584 
L 414.72 307.584 
" style="fill: none; stroke: #000000; stroke-width: 0.8; stroke-linejoin: miter; stroke-linecap: square"/>
   </g>
   <g id="patch_6">
    <path d="M 57.6 41.472 
L 414.72 41.472 
" style="fill: none; stroke: #000000; stroke-width: 0.8; stroke-linejoin: miter; stroke-linecap: square"/>
   </g>
   <g id="legend_1">
    <g id="patch_7">
     <path d="M 330.752813 122.862625 
L 407.72 122.862625 
Q 409.72 122.862625 409.72 120.862625 
L 409.72 48.472 
Q 409.72 46.472 407.72 46.472 
L 330.752813 46.472 
Q 328.752813 46.472 328.752813 48.472 
L 328.752813 120.862625 
Q 328.752813 122.862625 330.752813 122.862625 
z
" style="fill: #ffffff; opacity: 0.8; stroke: #cccccc; stroke-linejoin: miter"/>
    </g>
    <g id="line2d_23">
     <path d="M 332.752813 54.570438 
L 342.752813 54.570438 
L 352.752813 54.570438 
" style="fill: none; stroke: #1f77b4; stroke-width: 1.5; stroke-linecap: square"/>
    </g>
    <g id="text_20">
     <!-- 1st gear -->
     <g transform="translate(360.752813 58.070438) scale(0.1 -0.1)">
      <use xlink:href="#DejaVuSans-31"/>
      <use xlink:href="#DejaVuSans-73" x="63.623047"/>
      <use xlink:href="#DejaVuSans-74" x="115.722656"/>
      <use xlink:href="#DejaVuSans-20" x="154.931641"/>
      <use xlink:href="#DejaVuSans-67" x="186.71875"/>
      <use xlink:href="#DejaVuSans-65" x="250.195312"/>
      <use xlink:href="#DejaVuSans-61" x="311.71875"/>
      <use xlink:href="#DejaVuSans-72" x="372.998047"/>
     </g>
    </g>
    <g id="line2d_24">
     <path d="M 332.752813 69.248563 
L 342.752813 69.248563 
L 352.752813 69.248563 
" style="fill: none; stroke: #ff7f0e; stroke-width: 1.5; stroke-linecap: square"/>
    </g>
    <g id="text_21">
     <!-- 2nd gear -->
     <g transform="translate(360.752813 72.748563) scale(0.1 -0.1)">
      <use xlink:href="#DejaVuSans-32"/>
      <use xlink:href="#DejaVuSans-6e" x="63.623047"/>
      <use xlink:href="#DejaVuSans-64" x="127.001953"/>
      <use xlink:href="#DejaVuSans-20" x="190.478516"/>
      <use xlink:href="#DejaVuSans-67" x="222.265625"/>
      <use xlink:href="#DejaVuSans-65" x="285.742188"/>
      <use xlink:href="#DejaVuSans-61" x="347.265625"/>
      <use xlink:href="#DejaVuSans-72" x="408.544922"/>
     </g>
    </g>
    <g id="line2d_25">
     <path d="M 332.752813 83.926688 
L 342.752813 83.926688 
L 352.752813 83.926688 
" style="fill: none; stroke: #2ca02c; stroke-width: 1.5; stroke-linecap: square"/>
    </g>
    <g id="text_22">
     <!-- 3rd gear -->
     <g transform="translate(360.752813 87.426688) scale(0.1 -0.1)">
      <use xlink:href="#DejaVuSans-33"/>
      <use xlink:href="#DejaVuSans-72" x="63.623047"/>
      <use xlink:href="#DejaVuSans-64" x="102.986328"/>
      <use xlink:href="#DejaVuSans-20" x="166.462891"/>
      <use xlink:href="#DejaVuSans-67" x="198.25"/>
      <use xlink:href="#DejaVuSans-65" x="261.726562"/>
      <use xlink:href="#DejaVuSans-61" x="323.25"/>
      <use xlink:href="#DejaVuSans-72" x="384.529297"/>
     </g>
    </g>
    <g id="line2d_26">
     <path d="M 332.752813 98.604813 
L 342.752813 98.604813 
L 352.752813 98.604813 
" style="fill: none; stroke: #d62728; stroke-width: 1.5; stroke-linecap: square"/>
    </g>
    <g id="text_23">
     <!-- 4th gear -->
     <g transform="translate(360.752813 102.104813) scale(0.1 -0.1)">
      <use xlink:href="#DejaVuSans-34"/>
      <use xlink:href="#DejaVuSans-74" x="63.623047"/>
      <use xlink:href="#DejaVuSans-68" x="102.832031"/>
      <use xlink:href="#DejaVuSans-20" x="166.210938"/>
      <use xlink:href="#DejaVuSans-67" x="197.998047"/>
      <use xlink:href="#DejaVuSans-65" x="261.474609"/>
      <use xlink:href="#DejaVuSans-61" x="322.998047"/>
      <use xlink:href="#DejaVuSans-72" x="384.277344"/>
     </g>
    </g>
    <g id="line2d_27">
     <path d="M 332.752813 113.282938 
L 342.752813 113.282938 
L 352.752813 113.282938 
" style="fill: none; stroke: #9467bd; stroke-width: 1.5; stroke-linecap: square"/>
    </g>
    <g id="text_24">
     <!-- 5th gear -->
     <g transform="translate(360.752813 116.782938) scale(0.1 -0.1)">
      <use xlink:href="#DejaVuSans-35"/>
      <use xlink:href="#DejaVuSans-74" x="63.623047"/>
      <use xlink:href="#DejaVuSans-68" x="102.832031"/>
      <use xlink:href="#DejaVuSans-20" x="166.210938"/>
      <use xlink:href="#DejaVuSans-67" x="197.998047"/>
      <use xlink:href="#DejaVuSans-65" x="261.474609"/>
      <use xlink:href="#DejaVuSans-61" x="322.998047"/>
      <use xlink:href="#DejaVuSans-72" x="384.277344"/>
     </g>
    </g>
   </g>
  </g>
 </g>
 <defs>
  <clipPath id="p8a9038c4d3">
   <rect x="57.6" y="41.472" width="357.12" height="266.112"/>
  </clipPath>
 </defs>
</svg>
